%TF.GenerationSoftware,KiCad,Pcbnew,10.0.0*%
%TF.CreationDate,2026-03-30T10:19:57+02:00*%
%TF.ProjectId,Echo,4563686f-2e6b-4696-9361-645f70636258,rev?*%
%TF.SameCoordinates,Original*%
%TF.FileFunction,Legend,Top*%
%TF.FilePolarity,Positive*%
%FSLAX46Y46*%
G04 Gerber Fmt 4.6, Leading zero omitted, Abs format (unit mm)*
G04 Created by KiCad (PCBNEW 10.0.0) date 2026-03-30 10:19:57*
%MOMM*%
%LPD*%
G01*
G04 APERTURE LIST*
%ADD10C,0.150000*%
%ADD11C,0.120000*%
%ADD12C,0.000000*%
G04 APERTURE END LIST*
D10*
X174326779Y-79991009D02*
X174660112Y-79991009D01*
X174802969Y-80514819D02*
X174326779Y-80514819D01*
X174326779Y-80514819D02*
X174326779Y-79514819D01*
X174326779Y-79514819D02*
X174802969Y-79514819D01*
X175660112Y-80467200D02*
X175564874Y-80514819D01*
X175564874Y-80514819D02*
X175374398Y-80514819D01*
X175374398Y-80514819D02*
X175279160Y-80467200D01*
X175279160Y-80467200D02*
X175231541Y-80419580D01*
X175231541Y-80419580D02*
X175183922Y-80324342D01*
X175183922Y-80324342D02*
X175183922Y-80038628D01*
X175183922Y-80038628D02*
X175231541Y-79943390D01*
X175231541Y-79943390D02*
X175279160Y-79895771D01*
X175279160Y-79895771D02*
X175374398Y-79848152D01*
X175374398Y-79848152D02*
X175564874Y-79848152D01*
X175564874Y-79848152D02*
X175660112Y-79895771D01*
X176088684Y-80514819D02*
X176088684Y-79514819D01*
X176517255Y-80514819D02*
X176517255Y-79991009D01*
X176517255Y-79991009D02*
X176469636Y-79895771D01*
X176469636Y-79895771D02*
X176374398Y-79848152D01*
X176374398Y-79848152D02*
X176231541Y-79848152D01*
X176231541Y-79848152D02*
X176136303Y-79895771D01*
X176136303Y-79895771D02*
X176088684Y-79943390D01*
X177136303Y-80514819D02*
X177041065Y-80467200D01*
X177041065Y-80467200D02*
X176993446Y-80419580D01*
X176993446Y-80419580D02*
X176945827Y-80324342D01*
X176945827Y-80324342D02*
X176945827Y-80038628D01*
X176945827Y-80038628D02*
X176993446Y-79943390D01*
X176993446Y-79943390D02*
X177041065Y-79895771D01*
X177041065Y-79895771D02*
X177136303Y-79848152D01*
X177136303Y-79848152D02*
X177279160Y-79848152D01*
X177279160Y-79848152D02*
X177374398Y-79895771D01*
X177374398Y-79895771D02*
X177422017Y-79943390D01*
X177422017Y-79943390D02*
X177469636Y-80038628D01*
X177469636Y-80038628D02*
X177469636Y-80324342D01*
X177469636Y-80324342D02*
X177422017Y-80419580D01*
X177422017Y-80419580D02*
X177374398Y-80467200D01*
X177374398Y-80467200D02*
X177279160Y-80514819D01*
X177279160Y-80514819D02*
X177136303Y-80514819D01*
X178564875Y-79514819D02*
X179183922Y-79514819D01*
X179183922Y-79514819D02*
X178850589Y-79895771D01*
X178850589Y-79895771D02*
X178993446Y-79895771D01*
X178993446Y-79895771D02*
X179088684Y-79943390D01*
X179088684Y-79943390D02*
X179136303Y-79991009D01*
X179136303Y-79991009D02*
X179183922Y-80086247D01*
X179183922Y-80086247D02*
X179183922Y-80324342D01*
X179183922Y-80324342D02*
X179136303Y-80419580D01*
X179136303Y-80419580D02*
X179088684Y-80467200D01*
X179088684Y-80467200D02*
X178993446Y-80514819D01*
X178993446Y-80514819D02*
X178707732Y-80514819D01*
X178707732Y-80514819D02*
X178612494Y-80467200D01*
X178612494Y-80467200D02*
X178564875Y-80419580D01*
X180374399Y-80514819D02*
X180374399Y-79514819D01*
X180374399Y-79514819D02*
X180612494Y-79514819D01*
X180612494Y-79514819D02*
X180755351Y-79562438D01*
X180755351Y-79562438D02*
X180850589Y-79657676D01*
X180850589Y-79657676D02*
X180898208Y-79752914D01*
X180898208Y-79752914D02*
X180945827Y-79943390D01*
X180945827Y-79943390D02*
X180945827Y-80086247D01*
X180945827Y-80086247D02*
X180898208Y-80276723D01*
X180898208Y-80276723D02*
X180850589Y-80371961D01*
X180850589Y-80371961D02*
X180755351Y-80467200D01*
X180755351Y-80467200D02*
X180612494Y-80514819D01*
X180612494Y-80514819D02*
X180374399Y-80514819D01*
X181707732Y-79991009D02*
X181850589Y-80038628D01*
X181850589Y-80038628D02*
X181898208Y-80086247D01*
X181898208Y-80086247D02*
X181945827Y-80181485D01*
X181945827Y-80181485D02*
X181945827Y-80324342D01*
X181945827Y-80324342D02*
X181898208Y-80419580D01*
X181898208Y-80419580D02*
X181850589Y-80467200D01*
X181850589Y-80467200D02*
X181755351Y-80514819D01*
X181755351Y-80514819D02*
X181374399Y-80514819D01*
X181374399Y-80514819D02*
X181374399Y-79514819D01*
X181374399Y-79514819D02*
X181707732Y-79514819D01*
X181707732Y-79514819D02*
X181802970Y-79562438D01*
X181802970Y-79562438D02*
X181850589Y-79610057D01*
X181850589Y-79610057D02*
X181898208Y-79705295D01*
X181898208Y-79705295D02*
X181898208Y-79800533D01*
X181898208Y-79800533D02*
X181850589Y-79895771D01*
X181850589Y-79895771D02*
X181802970Y-79943390D01*
X181802970Y-79943390D02*
X181707732Y-79991009D01*
X181707732Y-79991009D02*
X181374399Y-79991009D01*
X182898208Y-79562438D02*
X182802970Y-79514819D01*
X182802970Y-79514819D02*
X182660113Y-79514819D01*
X182660113Y-79514819D02*
X182517256Y-79562438D01*
X182517256Y-79562438D02*
X182422018Y-79657676D01*
X182422018Y-79657676D02*
X182374399Y-79752914D01*
X182374399Y-79752914D02*
X182326780Y-79943390D01*
X182326780Y-79943390D02*
X182326780Y-80086247D01*
X182326780Y-80086247D02*
X182374399Y-80276723D01*
X182374399Y-80276723D02*
X182422018Y-80371961D01*
X182422018Y-80371961D02*
X182517256Y-80467200D01*
X182517256Y-80467200D02*
X182660113Y-80514819D01*
X182660113Y-80514819D02*
X182755351Y-80514819D01*
X182755351Y-80514819D02*
X182898208Y-80467200D01*
X182898208Y-80467200D02*
X182945827Y-80419580D01*
X182945827Y-80419580D02*
X182945827Y-80086247D01*
X182945827Y-80086247D02*
X182755351Y-80086247D01*
X184041066Y-79848152D02*
X184279161Y-80514819D01*
X184279161Y-80514819D02*
X184517256Y-79848152D01*
X185422018Y-80514819D02*
X184850590Y-80514819D01*
X185136304Y-80514819D02*
X185136304Y-79514819D01*
X185136304Y-79514819D02*
X185041066Y-79657676D01*
X185041066Y-79657676D02*
X184945828Y-79752914D01*
X184945828Y-79752914D02*
X184850590Y-79800533D01*
X185850590Y-80419580D02*
X185898209Y-80467200D01*
X185898209Y-80467200D02*
X185850590Y-80514819D01*
X185850590Y-80514819D02*
X185802971Y-80467200D01*
X185802971Y-80467200D02*
X185850590Y-80419580D01*
X185850590Y-80419580D02*
X185850590Y-80514819D01*
X186850589Y-80514819D02*
X186279161Y-80514819D01*
X186564875Y-80514819D02*
X186564875Y-79514819D01*
X186564875Y-79514819D02*
X186469637Y-79657676D01*
X186469637Y-79657676D02*
X186374399Y-79752914D01*
X186374399Y-79752914D02*
X186279161Y-79800533D01*
X156892666Y-81242819D02*
X156892666Y-81957104D01*
X156892666Y-81957104D02*
X156845047Y-82099961D01*
X156845047Y-82099961D02*
X156749809Y-82195200D01*
X156749809Y-82195200D02*
X156606952Y-82242819D01*
X156606952Y-82242819D02*
X156511714Y-82242819D01*
X157892666Y-82242819D02*
X157321238Y-82242819D01*
X157606952Y-82242819D02*
X157606952Y-81242819D01*
X157606952Y-81242819D02*
X157511714Y-81385676D01*
X157511714Y-81385676D02*
X157416476Y-81480914D01*
X157416476Y-81480914D02*
X157321238Y-81528533D01*
X170775333Y-85544819D02*
X170442000Y-85068628D01*
X170203905Y-85544819D02*
X170203905Y-84544819D01*
X170203905Y-84544819D02*
X170584857Y-84544819D01*
X170584857Y-84544819D02*
X170680095Y-84592438D01*
X170680095Y-84592438D02*
X170727714Y-84640057D01*
X170727714Y-84640057D02*
X170775333Y-84735295D01*
X170775333Y-84735295D02*
X170775333Y-84878152D01*
X170775333Y-84878152D02*
X170727714Y-84973390D01*
X170727714Y-84973390D02*
X170680095Y-85021009D01*
X170680095Y-85021009D02*
X170584857Y-85068628D01*
X170584857Y-85068628D02*
X170203905Y-85068628D01*
X171727714Y-85544819D02*
X171156286Y-85544819D01*
X171442000Y-85544819D02*
X171442000Y-84544819D01*
X171442000Y-84544819D02*
X171346762Y-84687676D01*
X171346762Y-84687676D02*
X171251524Y-84782914D01*
X171251524Y-84782914D02*
X171156286Y-84830533D01*
X166647905Y-85798819D02*
X166647905Y-84798819D01*
X166647905Y-84798819D02*
X166886000Y-84798819D01*
X166886000Y-84798819D02*
X167028857Y-84846438D01*
X167028857Y-84846438D02*
X167124095Y-84941676D01*
X167124095Y-84941676D02*
X167171714Y-85036914D01*
X167171714Y-85036914D02*
X167219333Y-85227390D01*
X167219333Y-85227390D02*
X167219333Y-85370247D01*
X167219333Y-85370247D02*
X167171714Y-85560723D01*
X167171714Y-85560723D02*
X167124095Y-85655961D01*
X167124095Y-85655961D02*
X167028857Y-85751200D01*
X167028857Y-85751200D02*
X166886000Y-85798819D01*
X166886000Y-85798819D02*
X166647905Y-85798819D01*
X168171714Y-85798819D02*
X167600286Y-85798819D01*
X167886000Y-85798819D02*
X167886000Y-84798819D01*
X167886000Y-84798819D02*
X167790762Y-84941676D01*
X167790762Y-84941676D02*
X167695524Y-85036914D01*
X167695524Y-85036914D02*
X167600286Y-85084533D01*
X159853333Y-85544819D02*
X159520000Y-85068628D01*
X159281905Y-85544819D02*
X159281905Y-84544819D01*
X159281905Y-84544819D02*
X159662857Y-84544819D01*
X159662857Y-84544819D02*
X159758095Y-84592438D01*
X159758095Y-84592438D02*
X159805714Y-84640057D01*
X159805714Y-84640057D02*
X159853333Y-84735295D01*
X159853333Y-84735295D02*
X159853333Y-84878152D01*
X159853333Y-84878152D02*
X159805714Y-84973390D01*
X159805714Y-84973390D02*
X159758095Y-85021009D01*
X159758095Y-85021009D02*
X159662857Y-85068628D01*
X159662857Y-85068628D02*
X159281905Y-85068628D01*
X160234286Y-84640057D02*
X160281905Y-84592438D01*
X160281905Y-84592438D02*
X160377143Y-84544819D01*
X160377143Y-84544819D02*
X160615238Y-84544819D01*
X160615238Y-84544819D02*
X160710476Y-84592438D01*
X160710476Y-84592438D02*
X160758095Y-84640057D01*
X160758095Y-84640057D02*
X160805714Y-84735295D01*
X160805714Y-84735295D02*
X160805714Y-84830533D01*
X160805714Y-84830533D02*
X160758095Y-84973390D01*
X160758095Y-84973390D02*
X160186667Y-85544819D01*
X160186667Y-85544819D02*
X160805714Y-85544819D01*
X190166666Y-83274819D02*
X190166666Y-83989104D01*
X190166666Y-83989104D02*
X190119047Y-84131961D01*
X190119047Y-84131961D02*
X190023809Y-84227200D01*
X190023809Y-84227200D02*
X189880952Y-84274819D01*
X189880952Y-84274819D02*
X189785714Y-84274819D01*
X190547619Y-83274819D02*
X191166666Y-83274819D01*
X191166666Y-83274819D02*
X190833333Y-83655771D01*
X190833333Y-83655771D02*
X190976190Y-83655771D01*
X190976190Y-83655771D02*
X191071428Y-83703390D01*
X191071428Y-83703390D02*
X191119047Y-83751009D01*
X191119047Y-83751009D02*
X191166666Y-83846247D01*
X191166666Y-83846247D02*
X191166666Y-84084342D01*
X191166666Y-84084342D02*
X191119047Y-84179580D01*
X191119047Y-84179580D02*
X191071428Y-84227200D01*
X191071428Y-84227200D02*
X190976190Y-84274819D01*
X190976190Y-84274819D02*
X190690476Y-84274819D01*
X190690476Y-84274819D02*
X190595238Y-84227200D01*
X190595238Y-84227200D02*
X190547619Y-84179580D01*
X169338666Y-80988819D02*
X169338666Y-81703104D01*
X169338666Y-81703104D02*
X169291047Y-81845961D01*
X169291047Y-81845961D02*
X169195809Y-81941200D01*
X169195809Y-81941200D02*
X169052952Y-81988819D01*
X169052952Y-81988819D02*
X168957714Y-81988819D01*
X170243428Y-81322152D02*
X170243428Y-81988819D01*
X170005333Y-80941200D02*
X169767238Y-81655485D01*
X169767238Y-81655485D02*
X170386285Y-81655485D01*
X156892666Y-79718819D02*
X156892666Y-80433104D01*
X156892666Y-80433104D02*
X156845047Y-80575961D01*
X156845047Y-80575961D02*
X156749809Y-80671200D01*
X156749809Y-80671200D02*
X156606952Y-80718819D01*
X156606952Y-80718819D02*
X156511714Y-80718819D01*
X157321238Y-79814057D02*
X157368857Y-79766438D01*
X157368857Y-79766438D02*
X157464095Y-79718819D01*
X157464095Y-79718819D02*
X157702190Y-79718819D01*
X157702190Y-79718819D02*
X157797428Y-79766438D01*
X157797428Y-79766438D02*
X157845047Y-79814057D01*
X157845047Y-79814057D02*
X157892666Y-79909295D01*
X157892666Y-79909295D02*
X157892666Y-80004533D01*
X157892666Y-80004533D02*
X157845047Y-80147390D01*
X157845047Y-80147390D02*
X157273619Y-80718819D01*
X157273619Y-80718819D02*
X157892666Y-80718819D01*
X169338666Y-79464819D02*
X169338666Y-80179104D01*
X169338666Y-80179104D02*
X169291047Y-80321961D01*
X169291047Y-80321961D02*
X169195809Y-80417200D01*
X169195809Y-80417200D02*
X169052952Y-80464819D01*
X169052952Y-80464819D02*
X168957714Y-80464819D01*
X170291047Y-79464819D02*
X169814857Y-79464819D01*
X169814857Y-79464819D02*
X169767238Y-79941009D01*
X169767238Y-79941009D02*
X169814857Y-79893390D01*
X169814857Y-79893390D02*
X169910095Y-79845771D01*
X169910095Y-79845771D02*
X170148190Y-79845771D01*
X170148190Y-79845771D02*
X170243428Y-79893390D01*
X170243428Y-79893390D02*
X170291047Y-79941009D01*
X170291047Y-79941009D02*
X170338666Y-80036247D01*
X170338666Y-80036247D02*
X170338666Y-80274342D01*
X170338666Y-80274342D02*
X170291047Y-80369580D01*
X170291047Y-80369580D02*
X170243428Y-80417200D01*
X170243428Y-80417200D02*
X170148190Y-80464819D01*
X170148190Y-80464819D02*
X169910095Y-80464819D01*
X169910095Y-80464819D02*
X169814857Y-80417200D01*
X169814857Y-80417200D02*
X169767238Y-80369580D01*
X162226666Y-86830819D02*
X162226666Y-87545104D01*
X162226666Y-87545104D02*
X162179047Y-87687961D01*
X162179047Y-87687961D02*
X162083809Y-87783200D01*
X162083809Y-87783200D02*
X161940952Y-87830819D01*
X161940952Y-87830819D02*
X161845714Y-87830819D01*
X163131428Y-86830819D02*
X162940952Y-86830819D01*
X162940952Y-86830819D02*
X162845714Y-86878438D01*
X162845714Y-86878438D02*
X162798095Y-86926057D01*
X162798095Y-86926057D02*
X162702857Y-87068914D01*
X162702857Y-87068914D02*
X162655238Y-87259390D01*
X162655238Y-87259390D02*
X162655238Y-87640342D01*
X162655238Y-87640342D02*
X162702857Y-87735580D01*
X162702857Y-87735580D02*
X162750476Y-87783200D01*
X162750476Y-87783200D02*
X162845714Y-87830819D01*
X162845714Y-87830819D02*
X163036190Y-87830819D01*
X163036190Y-87830819D02*
X163131428Y-87783200D01*
X163131428Y-87783200D02*
X163179047Y-87735580D01*
X163179047Y-87735580D02*
X163226666Y-87640342D01*
X163226666Y-87640342D02*
X163226666Y-87402247D01*
X163226666Y-87402247D02*
X163179047Y-87307009D01*
X163179047Y-87307009D02*
X163131428Y-87259390D01*
X163131428Y-87259390D02*
X163036190Y-87211771D01*
X163036190Y-87211771D02*
X162845714Y-87211771D01*
X162845714Y-87211771D02*
X162750476Y-87259390D01*
X162750476Y-87259390D02*
X162702857Y-87307009D01*
X162702857Y-87307009D02*
X162655238Y-87402247D01*
X162837905Y-85798819D02*
X162837905Y-84798819D01*
X162837905Y-84798819D02*
X163076000Y-84798819D01*
X163076000Y-84798819D02*
X163218857Y-84846438D01*
X163218857Y-84846438D02*
X163314095Y-84941676D01*
X163314095Y-84941676D02*
X163361714Y-85036914D01*
X163361714Y-85036914D02*
X163409333Y-85227390D01*
X163409333Y-85227390D02*
X163409333Y-85370247D01*
X163409333Y-85370247D02*
X163361714Y-85560723D01*
X163361714Y-85560723D02*
X163314095Y-85655961D01*
X163314095Y-85655961D02*
X163218857Y-85751200D01*
X163218857Y-85751200D02*
X163076000Y-85798819D01*
X163076000Y-85798819D02*
X162837905Y-85798819D01*
X163790286Y-84894057D02*
X163837905Y-84846438D01*
X163837905Y-84846438D02*
X163933143Y-84798819D01*
X163933143Y-84798819D02*
X164171238Y-84798819D01*
X164171238Y-84798819D02*
X164266476Y-84846438D01*
X164266476Y-84846438D02*
X164314095Y-84894057D01*
X164314095Y-84894057D02*
X164361714Y-84989295D01*
X164361714Y-84989295D02*
X164361714Y-85084533D01*
X164361714Y-85084533D02*
X164314095Y-85227390D01*
X164314095Y-85227390D02*
X163742667Y-85798819D01*
X163742667Y-85798819D02*
X164361714Y-85798819D01*
%TO.C,J1*%
D11*
X155330000Y-79960000D02*
X155330000Y-82020000D01*
X153620000Y-79960000D02*
X155330000Y-79960000D01*
X149510000Y-79960000D02*
X151120000Y-79960000D01*
X149510000Y-79960000D02*
X149510000Y-87680000D01*
X155330000Y-82020000D02*
X155920000Y-82020000D01*
X155330000Y-87680000D02*
X155330000Y-85620000D01*
X153620000Y-87680000D02*
X155330000Y-87680000D01*
X149510000Y-87680000D02*
X151120000Y-87680000D01*
%TO.C,R1*%
X170714936Y-82831000D02*
X171169064Y-82831000D01*
X170714936Y-84301000D02*
X171169064Y-84301000D01*
D12*
%TO.C,*%
G36*
X177618898Y-87324103D02*
G01*
X177638148Y-87348808D01*
X177650724Y-87400090D01*
X177657932Y-87482442D01*
X177661081Y-87600358D01*
X177661572Y-87702070D01*
X177660145Y-87851046D01*
X177655750Y-87959412D01*
X177648213Y-88029591D01*
X177637364Y-88064006D01*
X177635698Y-88065983D01*
X177601874Y-88089262D01*
X177571898Y-88077876D01*
X177544204Y-88043936D01*
X177530410Y-88015367D01*
X177520786Y-87971025D01*
X177514704Y-87904040D01*
X177511531Y-87807545D01*
X177510638Y-87678141D01*
X177510993Y-87554502D01*
X177512663Y-87467008D01*
X177516558Y-87408681D01*
X177523585Y-87372545D01*
X177534654Y-87351620D01*
X177550673Y-87338932D01*
X177555141Y-87336451D01*
X177591665Y-87321482D01*
X177618898Y-87324103D01*
G37*
G36*
X185060365Y-87327372D02*
G01*
X185075331Y-87335185D01*
X185086044Y-87351863D01*
X185093205Y-87383761D01*
X185097519Y-87437236D01*
X185099686Y-87518643D01*
X185100409Y-87634338D01*
X185100452Y-87690102D01*
X185099495Y-87832793D01*
X185095939Y-87937859D01*
X185088756Y-88010774D01*
X185076918Y-88057006D01*
X185059399Y-88082029D01*
X185035169Y-88091314D01*
X185024985Y-88091858D01*
X184990183Y-88078029D01*
X184975392Y-88065983D01*
X184964305Y-88036702D01*
X184956427Y-87972654D01*
X184951581Y-87871279D01*
X184949590Y-87730019D01*
X184949518Y-87690956D01*
X184950005Y-87558980D01*
X184951871Y-87463899D01*
X184955724Y-87399492D01*
X184962169Y-87359535D01*
X184971814Y-87337807D01*
X184984898Y-87328226D01*
X185035381Y-87322828D01*
X185060365Y-87327372D01*
G37*
G36*
X185893971Y-87315882D02*
G01*
X185993075Y-87317118D01*
X186061750Y-87320043D01*
X186106344Y-87325362D01*
X186133205Y-87333784D01*
X186148679Y-87346014D01*
X186157726Y-87360129D01*
X186171338Y-87407853D01*
X186150838Y-87440488D01*
X186093754Y-87459528D01*
X185997618Y-87466469D01*
X185981852Y-87466560D01*
X185833559Y-87466560D01*
X185832463Y-87655228D01*
X185827910Y-87825185D01*
X185816376Y-87952997D01*
X185797719Y-88039099D01*
X185771799Y-88083925D01*
X185738472Y-88087908D01*
X185701436Y-88056219D01*
X185686303Y-88019015D01*
X185675042Y-87946756D01*
X185667272Y-87836349D01*
X185664232Y-87754205D01*
X185660645Y-87642963D01*
X185656421Y-87567441D01*
X185650093Y-87520241D01*
X185640191Y-87493966D01*
X185625244Y-87481220D01*
X185608937Y-87475861D01*
X185562528Y-87467834D01*
X185541082Y-87467780D01*
X185507550Y-87469717D01*
X185451666Y-87469385D01*
X185442359Y-87469114D01*
X185376567Y-87455038D01*
X185346898Y-87420003D01*
X185355318Y-87366680D01*
X185360031Y-87357189D01*
X185370877Y-87342139D01*
X185389059Y-87331224D01*
X185420879Y-87323786D01*
X185472635Y-87319166D01*
X185550630Y-87316708D01*
X185661162Y-87315753D01*
X185758092Y-87315627D01*
X185893971Y-87315882D01*
G37*
G36*
X186523315Y-87335566D02*
G01*
X186552002Y-87390419D01*
X186565888Y-87472737D01*
X186566665Y-87500444D01*
X186566665Y-87617494D01*
X186825409Y-87617494D01*
X187084153Y-87617494D01*
X187084153Y-87490763D01*
X187091166Y-87395671D01*
X187112757Y-87340254D01*
X187149751Y-87323318D01*
X187190584Y-87336451D01*
X187207548Y-87347959D01*
X187219554Y-87365906D01*
X187227456Y-87397102D01*
X187232105Y-87448355D01*
X187234353Y-87526471D01*
X187235051Y-87638259D01*
X187235087Y-87692180D01*
X187234362Y-87823910D01*
X187231781Y-87919117D01*
X187226734Y-87984384D01*
X187218612Y-88026294D01*
X187206804Y-88051430D01*
X187201203Y-88057974D01*
X187154969Y-88088530D01*
X187119556Y-88078317D01*
X187095880Y-88028538D01*
X187084858Y-87940396D01*
X187084153Y-87904268D01*
X187084153Y-87768428D01*
X186825409Y-87768428D01*
X186566665Y-87768428D01*
X186566665Y-87894458D01*
X186562383Y-87977501D01*
X186547660Y-88029640D01*
X186527234Y-88056173D01*
X186490355Y-88085727D01*
X186466194Y-88086781D01*
X186441606Y-88065983D01*
X186430280Y-88035944D01*
X186422310Y-87970350D01*
X186417524Y-87866799D01*
X186415750Y-87722892D01*
X186415732Y-87703742D01*
X186416879Y-87562429D01*
X186420939Y-87458869D01*
X186428837Y-87387736D01*
X186441499Y-87343704D01*
X186459849Y-87321449D01*
X186483190Y-87315627D01*
X186523315Y-87335566D01*
G37*
G36*
X174430682Y-87328453D02*
G01*
X174542707Y-87331042D01*
X174623682Y-87337682D01*
X174685627Y-87350218D01*
X174740562Y-87370499D01*
X174758399Y-87378818D01*
X174861313Y-87448858D01*
X174930381Y-87537954D01*
X174965815Y-87638709D01*
X174967826Y-87743722D01*
X174936622Y-87845595D01*
X174872416Y-87936930D01*
X174775419Y-88010327D01*
X174739925Y-88027756D01*
X174680322Y-88045880D01*
X174595806Y-88061549D01*
X174497551Y-88073871D01*
X174396733Y-88081956D01*
X174304524Y-88084915D01*
X174232100Y-88081858D01*
X174190633Y-88071894D01*
X174190095Y-88071552D01*
X174175925Y-88041463D01*
X174164446Y-87977690D01*
X174155874Y-87889601D01*
X174150426Y-87786564D01*
X174148575Y-87691245D01*
X174319467Y-87691245D01*
X174319467Y-87919362D01*
X174448402Y-87919362D01*
X174536912Y-87913164D01*
X174623318Y-87897290D01*
X174664850Y-87884346D01*
X174744760Y-87835286D01*
X174795386Y-87768748D01*
X174812917Y-87693723D01*
X174793547Y-87619203D01*
X174783795Y-87603541D01*
X174717894Y-87545765D01*
X174612795Y-87503946D01*
X174469523Y-87478486D01*
X174465010Y-87478017D01*
X174319467Y-87463128D01*
X174319467Y-87691245D01*
X174148575Y-87691245D01*
X174148317Y-87677947D01*
X174149765Y-87573120D01*
X174154984Y-87481449D01*
X174157424Y-87463128D01*
X174164193Y-87412305D01*
X174174136Y-87380313D01*
X174188740Y-87356367D01*
X174207738Y-87340917D01*
X174239784Y-87332212D01*
X174293533Y-87328503D01*
X174377639Y-87328041D01*
X174430682Y-87328453D01*
G37*
G36*
X181864170Y-87322413D02*
G01*
X181965392Y-87334409D01*
X182056704Y-87351993D01*
X182127675Y-87374557D01*
X182129272Y-87375256D01*
X182236518Y-87442440D01*
X182310879Y-87531022D01*
X182349734Y-87634534D01*
X182350462Y-87746506D01*
X182319017Y-87843773D01*
X182261463Y-87933270D01*
X182184126Y-87997987D01*
X182080095Y-88041905D01*
X181942460Y-88069005D01*
X181924149Y-88071225D01*
X181790029Y-88084891D01*
X181692491Y-88090292D01*
X181625761Y-88087275D01*
X181584067Y-88075685D01*
X181566090Y-88061686D01*
X181555532Y-88027341D01*
X181547755Y-87959465D01*
X181545862Y-87924903D01*
X181542722Y-87867556D01*
X181540397Y-87761114D01*
X181540564Y-87707785D01*
X181693660Y-87707785D01*
X181693660Y-87924903D01*
X181867092Y-87914863D01*
X181972216Y-87905211D01*
X182044828Y-87889117D01*
X182095348Y-87864186D01*
X182098883Y-87861639D01*
X182168030Y-87793116D01*
X182197930Y-87720951D01*
X182186843Y-87649478D01*
X182185372Y-87646386D01*
X182137111Y-87577765D01*
X182066331Y-87530184D01*
X181965699Y-87499770D01*
X181885229Y-87487849D01*
X181806104Y-87480671D01*
X181744197Y-87477853D01*
X181711514Y-87479897D01*
X181710043Y-87480542D01*
X181703155Y-87505044D01*
X181697695Y-87562995D01*
X181694359Y-87644724D01*
X181693660Y-87707785D01*
X181540564Y-87707785D01*
X181540746Y-87649639D01*
X181543730Y-87542630D01*
X181549315Y-87449587D01*
X181557465Y-87380011D01*
X181568142Y-87343400D01*
X181568821Y-87342508D01*
X181605363Y-87326054D01*
X181673723Y-87317626D01*
X181763469Y-87316616D01*
X181864170Y-87322413D01*
G37*
G36*
X179367574Y-87341269D02*
G01*
X179401481Y-87367635D01*
X179460028Y-87416972D01*
X179536067Y-87483113D01*
X179622451Y-87559887D01*
X179658967Y-87592795D01*
X179899061Y-87810071D01*
X179907691Y-87595200D01*
X179916133Y-87471337D01*
X179930927Y-87386878D01*
X179953720Y-87338362D01*
X179986154Y-87322327D01*
X180029874Y-87335311D01*
X180030873Y-87335842D01*
X180048256Y-87347357D01*
X180060559Y-87364815D01*
X180068658Y-87395042D01*
X180073427Y-87444861D01*
X180075738Y-87521098D01*
X180076468Y-87630576D01*
X180076513Y-87692180D01*
X180075786Y-87823943D01*
X180073200Y-87919178D01*
X180068146Y-87984461D01*
X180060017Y-88026369D01*
X180048202Y-88051479D01*
X180042672Y-88057932D01*
X180024783Y-88073078D01*
X180005483Y-88078761D01*
X179979835Y-88071842D01*
X179942902Y-88049178D01*
X179889745Y-88007630D01*
X179815427Y-87944057D01*
X179715011Y-87855317D01*
X179692109Y-87834938D01*
X179605896Y-87759298D01*
X179530343Y-87695099D01*
X179471529Y-87647345D01*
X179435533Y-87621040D01*
X179427975Y-87617494D01*
X179419402Y-87637485D01*
X179412685Y-87691191D01*
X179408744Y-87769216D01*
X179408092Y-87820793D01*
X179406221Y-87925386D01*
X179399835Y-87995139D01*
X179387766Y-88038206D01*
X179374209Y-88057974D01*
X179333680Y-88087832D01*
X179300259Y-88080166D01*
X179269161Y-88043936D01*
X179254809Y-88013892D01*
X179244982Y-87967122D01*
X179238983Y-87896505D01*
X179236115Y-87794924D01*
X179235596Y-87701333D01*
X179236296Y-87579739D01*
X179239010Y-87493372D01*
X179244663Y-87434348D01*
X179254178Y-87394783D01*
X179268476Y-87366794D01*
X179275935Y-87356835D01*
X179307569Y-87323597D01*
X179334869Y-87322016D01*
X179367574Y-87341269D01*
G37*
G36*
X180929438Y-87317317D02*
G01*
X181027264Y-87320823D01*
X181102122Y-87325992D01*
X181145338Y-87332340D01*
X181151107Y-87334567D01*
X181170810Y-87367947D01*
X181172669Y-87404313D01*
X181152495Y-87446804D01*
X181111487Y-87460138D01*
X181066859Y-87463428D01*
X180991841Y-87468638D01*
X180899078Y-87474897D01*
X180847353Y-87478322D01*
X180637124Y-87492147D01*
X180637124Y-87554821D01*
X180637124Y-87617494D01*
X180806980Y-87617494D01*
X180919082Y-87623088D01*
X180990633Y-87640262D01*
X181022779Y-87669600D01*
X181016667Y-87711690D01*
X181010935Y-87721721D01*
X180988025Y-87741271D01*
X180943356Y-87753889D01*
X180868469Y-87761395D01*
X180814999Y-87763873D01*
X180641647Y-87770099D01*
X180632934Y-87844730D01*
X180624221Y-87919362D01*
X180786997Y-87919549D01*
X180886733Y-87921587D01*
X180987694Y-87926728D01*
X181062973Y-87933334D01*
X181128931Y-87943060D01*
X181162620Y-87956222D01*
X181174758Y-87979664D01*
X181176173Y-88005610D01*
X181172258Y-88041563D01*
X181153013Y-88061030D01*
X181107188Y-88071728D01*
X181073754Y-88075867D01*
X180968640Y-88084917D01*
X180856458Y-88089894D01*
X180746455Y-88090946D01*
X180647876Y-88088220D01*
X180569968Y-88081862D01*
X180521976Y-88072021D01*
X180513031Y-88066950D01*
X180504341Y-88037613D01*
X180497013Y-87974340D01*
X180491221Y-87886303D01*
X180487142Y-87782674D01*
X180484952Y-87672625D01*
X180484827Y-87565326D01*
X180486942Y-87469951D01*
X180491473Y-87395670D01*
X180498597Y-87351656D01*
X180499278Y-87349733D01*
X180510376Y-87336013D01*
X180535726Y-87326475D01*
X180581881Y-87320423D01*
X180655393Y-87317161D01*
X180762814Y-87315993D01*
X180817317Y-87315957D01*
X180929438Y-87317317D01*
G37*
G36*
X178675290Y-87329487D02*
G01*
X178755051Y-87344551D01*
X178802093Y-87367483D01*
X178837808Y-87404125D01*
X178844079Y-87431778D01*
X178827125Y-87465346D01*
X178806820Y-87480767D01*
X178764973Y-87489410D01*
X178693907Y-87492189D01*
X178612806Y-87490860D01*
X178504729Y-87490176D01*
X178425835Y-87496593D01*
X178362526Y-87511809D01*
X178324000Y-87526907D01*
X178241393Y-87581160D01*
X178195325Y-87649342D01*
X178185944Y-87723396D01*
X178213397Y-87795260D01*
X178277832Y-87856876D01*
X178317569Y-87878496D01*
X178388450Y-87900110D01*
X178480421Y-87914404D01*
X178576780Y-87920182D01*
X178660827Y-87916250D01*
X178705564Y-87906274D01*
X178736949Y-87880282D01*
X178733238Y-87851026D01*
X178698273Y-87833780D01*
X178687169Y-87833114D01*
X178611946Y-87822678D01*
X178556526Y-87795849D01*
X178526342Y-87759349D01*
X178526829Y-87719898D01*
X178563420Y-87684217D01*
X178565757Y-87682939D01*
X178618113Y-87667434D01*
X178689789Y-87660860D01*
X178765416Y-87662803D01*
X178829626Y-87672848D01*
X178867053Y-87690580D01*
X178867480Y-87691079D01*
X178881362Y-87731599D01*
X178887202Y-87803644D01*
X178886292Y-87858184D01*
X178881484Y-87933142D01*
X178872007Y-87977582D01*
X178851871Y-88004088D01*
X178815087Y-88025244D01*
X178804356Y-88030340D01*
X178717952Y-88057846D01*
X178607587Y-88074925D01*
X178491531Y-88079890D01*
X178388055Y-88071052D01*
X178380155Y-88069556D01*
X178240411Y-88023035D01*
X178130312Y-87945240D01*
X178049590Y-87835958D01*
X178028850Y-87791738D01*
X178014169Y-87703503D01*
X178034911Y-87609178D01*
X178085955Y-87517367D01*
X178162181Y-87436674D01*
X178258468Y-87375704D01*
X178282484Y-87365541D01*
X178368172Y-87341992D01*
X178470062Y-87328164D01*
X178576364Y-87324010D01*
X178675290Y-87329487D01*
G37*
G36*
X175817357Y-87317443D02*
G01*
X175918530Y-87323777D01*
X175986466Y-87335951D01*
X176026050Y-87355290D01*
X176042166Y-87383120D01*
X176041130Y-87414081D01*
X176033469Y-87432422D01*
X176013772Y-87445554D01*
X175974619Y-87455157D01*
X175908590Y-87462913D01*
X175808265Y-87470502D01*
X175785433Y-87472017D01*
X175684588Y-87479315D01*
X175598519Y-87486823D01*
X175536997Y-87493607D01*
X175510766Y-87498293D01*
X175490307Y-87525060D01*
X175483813Y-87562913D01*
X175485413Y-87589304D01*
X175495894Y-87605429D01*
X175523779Y-87613816D01*
X175577592Y-87616995D01*
X175665856Y-87617494D01*
X175667767Y-87617494D01*
X175760656Y-87618955D01*
X175818921Y-87624343D01*
X175850997Y-87635162D01*
X175865256Y-87652768D01*
X175872101Y-87698565D01*
X175849137Y-87730665D01*
X175792520Y-87751143D01*
X175698402Y-87762076D01*
X175659427Y-87763910D01*
X175483813Y-87770172D01*
X175483813Y-87844767D01*
X175483813Y-87919362D01*
X175694042Y-87921913D01*
X175826728Y-87925274D01*
X175922009Y-87932414D01*
X175985524Y-87944498D01*
X176022914Y-87962689D01*
X176039818Y-87988153D01*
X176041115Y-87993570D01*
X176040725Y-88030129D01*
X176020147Y-88056753D01*
X175974521Y-88074794D01*
X175898988Y-88085601D01*
X175788690Y-88090527D01*
X175689921Y-88091202D01*
X175581131Y-88089329D01*
X175485738Y-88084683D01*
X175413220Y-88077934D01*
X175373055Y-88069754D01*
X175370613Y-88068569D01*
X175356230Y-88055926D01*
X175345999Y-88033059D01*
X175339234Y-87993395D01*
X175335250Y-87930366D01*
X175333360Y-87837400D01*
X175332879Y-87707928D01*
X175332879Y-87706983D01*
X175334295Y-87557728D01*
X175338656Y-87449063D01*
X175346136Y-87378546D01*
X175356908Y-87343731D01*
X175358754Y-87341501D01*
X175392030Y-87329216D01*
X175464222Y-87320920D01*
X175576841Y-87316492D01*
X175678062Y-87315627D01*
X175817357Y-87317443D01*
G37*
G36*
X184605704Y-87330295D02*
G01*
X184614903Y-87336853D01*
X184642628Y-87380319D01*
X184647650Y-87407601D01*
X184638564Y-87441097D01*
X184613913Y-87503913D01*
X184577610Y-87587817D01*
X184533566Y-87684575D01*
X184485693Y-87785955D01*
X184437903Y-87883725D01*
X184394108Y-87969651D01*
X184358221Y-88035500D01*
X184334152Y-88073041D01*
X184329062Y-88078085D01*
X184298614Y-88085722D01*
X184266071Y-88067642D01*
X184227172Y-88019493D01*
X184177659Y-87936926D01*
X184160974Y-87906418D01*
X184073194Y-87743661D01*
X184001588Y-87880026D01*
X183940487Y-87989145D01*
X183892411Y-88058664D01*
X183856470Y-88089799D01*
X183847013Y-88091858D01*
X183823301Y-88075747D01*
X183797467Y-88043291D01*
X183772548Y-87999083D01*
X183735228Y-87925538D01*
X183690291Y-87832870D01*
X183642520Y-87731294D01*
X183596700Y-87631025D01*
X183557614Y-87542277D01*
X183530045Y-87475264D01*
X183524747Y-87460958D01*
X183508240Y-87405052D01*
X183510576Y-87371515D01*
X183528972Y-87346965D01*
X183561070Y-87325914D01*
X183593631Y-87330993D01*
X183629981Y-87365632D01*
X183673444Y-87433260D01*
X183727345Y-87537307D01*
X183741117Y-87565808D01*
X183784320Y-87654149D01*
X183821225Y-87726092D01*
X183847756Y-87773918D01*
X183859574Y-87789990D01*
X183874656Y-87772456D01*
X183901527Y-87727395D01*
X183922697Y-87687365D01*
X183961839Y-87616536D01*
X184002117Y-87553333D01*
X184018738Y-87531041D01*
X184053259Y-87499107D01*
X184086183Y-87495297D01*
X184122130Y-87522758D01*
X184165718Y-87584637D01*
X184208970Y-87660618D01*
X184246438Y-87729147D01*
X184275359Y-87780898D01*
X184290187Y-87805970D01*
X184290827Y-87806792D01*
X184301863Y-87791102D01*
X184327323Y-87743949D01*
X184363266Y-87672888D01*
X184400473Y-87596512D01*
X184459846Y-87477407D01*
X184507000Y-87394932D01*
X184544992Y-87345388D01*
X184576874Y-87325075D01*
X184605704Y-87330295D01*
G37*
G36*
X176873119Y-87318784D02*
G01*
X176980711Y-87331283D01*
X177070081Y-87351964D01*
X177130215Y-87379933D01*
X177138443Y-87386992D01*
X177158100Y-87429837D01*
X177145295Y-87471646D01*
X177108804Y-87498776D01*
X177065691Y-87500095D01*
X177007452Y-87491674D01*
X176924189Y-87487177D01*
X176827986Y-87486357D01*
X176730928Y-87488968D01*
X176645098Y-87494761D01*
X176582579Y-87503491D01*
X176560524Y-87510427D01*
X176532685Y-87531550D01*
X176534205Y-87551494D01*
X176568112Y-87571766D01*
X176637436Y-87593875D01*
X176745204Y-87619328D01*
X176803974Y-87631648D01*
X176912980Y-87655047D01*
X176988686Y-87674979D01*
X177040345Y-87694967D01*
X177077211Y-87718534D01*
X177106351Y-87746776D01*
X177144288Y-87797943D01*
X177164581Y-87843410D01*
X177165647Y-87852108D01*
X177148292Y-87906690D01*
X177103586Y-87967446D01*
X177042563Y-88020901D01*
X177012534Y-88039080D01*
X176950530Y-88058772D01*
X176858648Y-88073100D01*
X176749896Y-88081232D01*
X176637281Y-88082332D01*
X176533810Y-88075569D01*
X176504798Y-88071615D01*
X176422037Y-88056023D01*
X176373739Y-88038780D01*
X176351353Y-88015161D01*
X176346292Y-87984048D01*
X176350946Y-87954679D01*
X176369089Y-87934427D01*
X176406993Y-87921933D01*
X176470930Y-87915836D01*
X176567173Y-87914778D01*
X176658723Y-87916344D01*
X176781504Y-87917625D01*
X176867752Y-87914579D01*
X176923886Y-87906700D01*
X176956328Y-87893479D01*
X176957365Y-87892727D01*
X176979516Y-87869178D01*
X176975176Y-87848252D01*
X176940687Y-87828200D01*
X176872393Y-87807271D01*
X176766639Y-87783716D01*
X176703901Y-87771421D01*
X176592212Y-87748500D01*
X176513924Y-87727690D01*
X176459654Y-87705719D01*
X176420017Y-87679311D01*
X176407424Y-87667994D01*
X176358605Y-87597713D01*
X176348974Y-87524020D01*
X176375728Y-87453326D01*
X176436065Y-87392041D01*
X176527181Y-87346575D01*
X176551131Y-87339318D01*
X176647316Y-87321907D01*
X176758316Y-87315361D01*
X176873119Y-87318784D01*
G37*
G36*
X187138058Y-82658259D02*
G01*
X187138058Y-84464065D01*
X187138058Y-86269871D01*
X187187010Y-86361510D01*
X187235963Y-86453148D01*
X186793504Y-86453148D01*
X186351046Y-86453148D01*
X186351046Y-86390225D01*
X186347008Y-86317378D01*
X186330692Y-86283809D01*
X186295789Y-86286236D01*
X186235995Y-86321376D01*
X186228544Y-86326467D01*
X186083676Y-86406225D01*
X185918864Y-86457810D01*
X185725854Y-86483805D01*
X185725219Y-86483848D01*
X185588906Y-86487110D01*
X185478554Y-86475659D01*
X185425665Y-86463324D01*
X185243797Y-86390592D01*
X185080648Y-86281400D01*
X184939635Y-86139602D01*
X184824173Y-85969056D01*
X184737678Y-85773615D01*
X184700913Y-85645172D01*
X184684372Y-85543104D01*
X184673209Y-85410452D01*
X184667576Y-85259442D01*
X184667597Y-85185248D01*
X185531811Y-85185248D01*
X185533770Y-85296839D01*
X185539002Y-85400760D01*
X185546693Y-85484910D01*
X185555331Y-85534795D01*
X185597640Y-85640110D01*
X185658932Y-85733307D01*
X185729850Y-85801161D01*
X185754295Y-85816008D01*
X185843409Y-85840576D01*
X185953855Y-85838631D01*
X186073962Y-85811417D01*
X186170284Y-85771718D01*
X186286360Y-85712989D01*
X186286360Y-85103922D01*
X186286360Y-84494856D01*
X186184252Y-84445426D01*
X186099297Y-84414168D01*
X186002608Y-84392306D01*
X185963242Y-84387690D01*
X185844351Y-84396718D01*
X185744998Y-84442115D01*
X185664921Y-84524365D01*
X185603857Y-84643950D01*
X185561547Y-84801354D01*
X185537728Y-84997061D01*
X185531811Y-85185248D01*
X184667597Y-85185248D01*
X184667621Y-85102295D01*
X184673496Y-84951236D01*
X184685350Y-84818487D01*
X184690311Y-84782646D01*
X184743262Y-84544981D01*
X184824090Y-84333986D01*
X184931181Y-84152181D01*
X185062917Y-84002081D01*
X185217682Y-83886204D01*
X185290733Y-83847608D01*
X185355478Y-83820240D01*
X185418230Y-83802273D01*
X185492124Y-83791302D01*
X185590297Y-83784923D01*
X185643701Y-83782978D01*
X185818530Y-83784640D01*
X185961489Y-83803037D01*
X186081168Y-83839983D01*
X186186155Y-83897291D01*
X186186577Y-83897578D01*
X186237370Y-83930369D01*
X186272143Y-83949733D01*
X186278857Y-83951959D01*
X186281803Y-83931340D01*
X186283883Y-83873238D01*
X186285057Y-83783285D01*
X186285285Y-83667114D01*
X186284528Y-83530359D01*
X186282852Y-83385958D01*
X186279969Y-83209723D01*
X186276735Y-83071221D01*
X186272767Y-82965060D01*
X186267682Y-82885849D01*
X186261096Y-82828197D01*
X186252627Y-82786712D01*
X186241891Y-82756004D01*
X186237407Y-82746567D01*
X186213412Y-82697587D01*
X186200715Y-82668233D01*
X186200112Y-82665710D01*
X186220642Y-82663529D01*
X186278106Y-82661599D01*
X186366315Y-82660021D01*
X186479077Y-82658891D01*
X186610205Y-82658308D01*
X186669085Y-82658250D01*
X187138058Y-82658259D01*
G37*
G36*
X181147622Y-82835066D02*
G01*
X181279807Y-82856700D01*
X181285771Y-82858142D01*
X181349825Y-82877182D01*
X181434827Y-82906981D01*
X181532852Y-82944224D01*
X181635978Y-82985599D01*
X181736280Y-83027792D01*
X181825835Y-83067489D01*
X181896718Y-83101377D01*
X181941006Y-83126143D01*
X181952002Y-83136735D01*
X181940894Y-83159158D01*
X181910474Y-83209352D01*
X181865584Y-83280024D01*
X181811072Y-83363881D01*
X181751783Y-83453630D01*
X181692561Y-83541978D01*
X181638253Y-83621632D01*
X181593703Y-83685300D01*
X181563757Y-83725688D01*
X181553625Y-83736340D01*
X181532323Y-83724461D01*
X181485844Y-83693053D01*
X181423512Y-83648459D01*
X181411823Y-83639885D01*
X181310157Y-83572087D01*
X181217488Y-83529495D01*
X181117701Y-83506987D01*
X180994680Y-83499442D01*
X180969388Y-83499278D01*
X180872952Y-83503005D01*
X180796589Y-83517845D01*
X180717652Y-83549023D01*
X180685039Y-83564854D01*
X180575859Y-83629605D01*
X180487113Y-83707647D01*
X180413193Y-83806455D01*
X180348491Y-83933501D01*
X180288276Y-84093638D01*
X180270706Y-84149536D01*
X180257777Y-84202396D01*
X180248789Y-84260193D01*
X180243042Y-84330900D01*
X180239835Y-84422491D01*
X180238467Y-84542940D01*
X180238227Y-84663504D01*
X180239232Y-84829942D01*
X180243179Y-84961674D01*
X180251465Y-85067092D01*
X180265489Y-85154588D01*
X180286648Y-85232553D01*
X180316342Y-85309378D01*
X180355967Y-85393454D01*
X180361775Y-85405064D01*
X180414423Y-85488130D01*
X180488214Y-85577424D01*
X180571049Y-85660223D01*
X180650828Y-85723804D01*
X180683256Y-85743138D01*
X180840789Y-85801402D01*
X181002261Y-85817257D01*
X181168153Y-85790623D01*
X181338945Y-85721423D01*
X181515117Y-85609579D01*
X181517424Y-85607860D01*
X181576132Y-85565611D01*
X181619453Y-85537431D01*
X181637958Y-85529430D01*
X181659324Y-85561534D01*
X181695650Y-85620703D01*
X181742480Y-85699226D01*
X181795357Y-85789387D01*
X181849825Y-85883476D01*
X181901428Y-85973777D01*
X181945709Y-86052579D01*
X181978211Y-86112169D01*
X181994478Y-86144832D01*
X181995528Y-86148294D01*
X181976895Y-86167889D01*
X181926338Y-86199910D01*
X181851870Y-86240509D01*
X181761503Y-86285841D01*
X181663248Y-86332058D01*
X181565120Y-86375315D01*
X181475130Y-86411764D01*
X181401290Y-86437561D01*
X181381012Y-86443292D01*
X181290827Y-86459999D01*
X181170987Y-86473267D01*
X181034799Y-86482522D01*
X180895570Y-86487191D01*
X180766606Y-86486697D01*
X180661215Y-86480468D01*
X180626343Y-86475864D01*
X180403248Y-86417173D01*
X180189482Y-86319466D01*
X179989741Y-86186600D01*
X179808720Y-86022433D01*
X179651117Y-85830824D01*
X179521626Y-85615630D01*
X179485052Y-85538263D01*
X179433870Y-85414656D01*
X179395249Y-85300191D01*
X179367601Y-85185419D01*
X179349338Y-85060894D01*
X179338870Y-84917165D01*
X179334608Y-84744786D01*
X179334314Y-84641942D01*
X179334990Y-84494258D01*
X179336822Y-84381131D01*
X179340649Y-84293993D01*
X179347311Y-84224279D01*
X179357648Y-84163422D01*
X179372499Y-84102855D01*
X179392704Y-84034013D01*
X179394474Y-84028229D01*
X179486815Y-83782007D01*
X179605504Y-83564283D01*
X179722111Y-83405238D01*
X179897649Y-83222639D01*
X180097426Y-83068345D01*
X180314049Y-82947209D01*
X180540128Y-82864081D01*
X180550876Y-82861187D01*
X180677943Y-82837892D01*
X180830529Y-82825729D01*
X180992476Y-82824764D01*
X181147622Y-82835066D01*
G37*
G36*
X183393598Y-83768025D02*
G01*
X183481764Y-83776156D01*
X183651551Y-83801923D01*
X183790403Y-83838934D01*
X183909909Y-83891273D01*
X184021659Y-83963023D01*
X184030114Y-83969349D01*
X184133427Y-84070381D01*
X184222558Y-84203005D01*
X184290493Y-84356292D01*
X184302578Y-84393980D01*
X184310316Y-84441755D01*
X184317766Y-84531411D01*
X184324874Y-84661708D01*
X184331587Y-84831403D01*
X184337849Y-85039254D01*
X184343607Y-85284020D01*
X184345510Y-85379022D01*
X184350071Y-85605698D01*
X184354389Y-85793227D01*
X184358675Y-85945582D01*
X184363143Y-86066736D01*
X184368005Y-86160663D01*
X184373475Y-86231337D01*
X184379766Y-86282732D01*
X184387090Y-86318820D01*
X184395661Y-86343577D01*
X184397401Y-86347233D01*
X184420493Y-86398200D01*
X184431802Y-86432342D01*
X184432031Y-86434899D01*
X184411545Y-86440445D01*
X184354392Y-86445313D01*
X184267027Y-86449229D01*
X184155902Y-86451920D01*
X184027474Y-86453113D01*
X184000791Y-86453148D01*
X183569552Y-86453148D01*
X183569552Y-86356119D01*
X183567123Y-86298233D01*
X183560978Y-86263527D01*
X183557332Y-86259090D01*
X183534038Y-86270992D01*
X183490873Y-86300681D01*
X183475565Y-86312137D01*
X183321449Y-86404875D01*
X183147460Y-86461929D01*
X182987379Y-86483143D01*
X182888550Y-86485942D01*
X182793352Y-86483414D01*
X182719696Y-86476136D01*
X182709409Y-86474220D01*
X182584287Y-86436115D01*
X182454175Y-86376696D01*
X182335721Y-86304621D01*
X182254272Y-86237528D01*
X182150834Y-86105462D01*
X182073811Y-85947196D01*
X182026354Y-85772836D01*
X182013671Y-85617676D01*
X182814883Y-85617676D01*
X182818505Y-85685247D01*
X182834928Y-85733668D01*
X182872481Y-85781964D01*
X182898594Y-85808826D01*
X182946200Y-85853841D01*
X182985693Y-85878910D01*
X183032880Y-85889852D01*
X183103567Y-85892492D01*
X183125854Y-85892537D01*
X183250353Y-85883252D01*
X183344014Y-85854383D01*
X183349401Y-85851707D01*
X183416694Y-85813553D01*
X183460803Y-85774487D01*
X183486813Y-85724224D01*
X183499811Y-85652477D01*
X183504883Y-85548960D01*
X183505144Y-85536764D01*
X183506667Y-85446842D01*
X183507415Y-85371725D01*
X183507295Y-85323077D01*
X183506955Y-85313246D01*
X183497354Y-85299577D01*
X183466392Y-85291946D01*
X183407233Y-85289700D01*
X183313041Y-85292186D01*
X183294637Y-85292963D01*
X183126454Y-85310493D01*
X182995906Y-85347336D01*
X182901618Y-85404422D01*
X182842215Y-85482683D01*
X182816322Y-85583048D01*
X182814883Y-85617676D01*
X182013671Y-85617676D01*
X182011612Y-85592492D01*
X182019849Y-85485125D01*
X182064604Y-85317124D01*
X182147402Y-85165724D01*
X182265533Y-85033423D01*
X182416286Y-84922718D01*
X182596953Y-84836106D01*
X182784428Y-84780477D01*
X182864021Y-84766853D01*
X182972847Y-84753795D01*
X183097024Y-84742724D01*
X183222670Y-84735063D01*
X183231772Y-84734665D01*
X183530071Y-84722028D01*
X183516084Y-84647470D01*
X183479418Y-84528611D01*
X183421090Y-84433942D01*
X183379116Y-84393980D01*
X183341416Y-84371771D01*
X183293836Y-84358672D01*
X183224840Y-84352652D01*
X183138312Y-84351593D01*
X183032735Y-84355234D01*
X182942008Y-84367582D01*
X182846705Y-84392222D01*
X182758419Y-84421670D01*
X182672812Y-84451408D01*
X182603133Y-84474766D01*
X182558912Y-84488595D01*
X182548628Y-84491009D01*
X182528953Y-84471161D01*
X182496691Y-84413718D01*
X182453383Y-84321828D01*
X182400570Y-84198640D01*
X182375115Y-84136321D01*
X182341837Y-84053153D01*
X182315678Y-83986562D01*
X182300149Y-83945553D01*
X182297396Y-83936988D01*
X182315335Y-83931412D01*
X182335670Y-83930397D01*
X182370682Y-83925459D01*
X182437907Y-83912006D01*
X182527746Y-83892080D01*
X182630602Y-83867724D01*
X182632831Y-83867180D01*
X182829227Y-83821846D01*
X182994297Y-83790250D01*
X183137245Y-83771406D01*
X183267277Y-83764327D01*
X183393598Y-83768025D01*
G37*
G36*
X178344903Y-81549286D02*
G01*
X178417555Y-81555029D01*
X178477048Y-81568413D01*
X178538346Y-81592433D01*
X178591379Y-81617688D01*
X178745079Y-81716041D01*
X178877684Y-81846145D01*
X178979729Y-81998363D01*
X178994532Y-82028242D01*
X179052319Y-82151535D01*
X179058078Y-84513336D01*
X179058933Y-84889242D01*
X179059545Y-85224330D01*
X179059890Y-85520905D01*
X179059944Y-85781274D01*
X179059683Y-86007740D01*
X179059082Y-86202610D01*
X179058117Y-86368188D01*
X179056765Y-86506782D01*
X179055001Y-86620694D01*
X179052800Y-86712232D01*
X179050139Y-86783700D01*
X179046993Y-86837405D01*
X179043339Y-86875650D01*
X179039152Y-86900742D01*
X179034407Y-86914986D01*
X179032866Y-86917496D01*
X179027239Y-86924106D01*
X179018972Y-86929999D01*
X179005665Y-86935221D01*
X178984918Y-86939821D01*
X178954329Y-86943846D01*
X178911500Y-86947345D01*
X178854028Y-86950365D01*
X178779515Y-86952953D01*
X178685560Y-86955158D01*
X178569761Y-86957028D01*
X178429720Y-86958610D01*
X178263036Y-86959953D01*
X178067307Y-86961103D01*
X177840134Y-86962109D01*
X177579117Y-86963019D01*
X177281855Y-86963880D01*
X176945948Y-86964741D01*
X176622057Y-86965522D01*
X176244518Y-86966359D01*
X175907808Y-86966956D01*
X175609635Y-86967289D01*
X175347707Y-86967334D01*
X175119730Y-86967067D01*
X174923410Y-86966464D01*
X174756456Y-86965502D01*
X174616573Y-86964156D01*
X174501469Y-86962403D01*
X174408850Y-86960218D01*
X174336424Y-86957578D01*
X174281897Y-86954460D01*
X174242976Y-86950838D01*
X174217369Y-86946690D01*
X174202782Y-86941991D01*
X174199986Y-86940309D01*
X174193286Y-86934608D01*
X174187335Y-86926245D01*
X174182088Y-86912774D01*
X174177501Y-86891751D01*
X174173530Y-86860733D01*
X174170130Y-86817275D01*
X174167257Y-86758932D01*
X174164867Y-86683262D01*
X174162914Y-86587819D01*
X174161356Y-86470159D01*
X174160948Y-86422037D01*
X174160148Y-86327838D01*
X174159245Y-86158413D01*
X174158602Y-85959438D01*
X174158177Y-85728470D01*
X174157923Y-85463064D01*
X174157798Y-85160777D01*
X174157756Y-84819164D01*
X174157752Y-84612110D01*
X174157792Y-84245887D01*
X174157935Y-83920367D01*
X174158218Y-83633130D01*
X174158679Y-83381753D01*
X174159355Y-83163818D01*
X174160281Y-82976902D01*
X174160994Y-82883978D01*
X174491963Y-82883978D01*
X174501141Y-82907345D01*
X174524487Y-82955407D01*
X174540477Y-82986397D01*
X174588991Y-83078700D01*
X174588991Y-84663504D01*
X174588991Y-86248309D01*
X174540477Y-86330399D01*
X174511082Y-86382103D01*
X174493846Y-86416220D01*
X174491963Y-86422037D01*
X174512555Y-86424667D01*
X174570451Y-86427020D01*
X174659832Y-86428991D01*
X174774879Y-86430475D01*
X174909772Y-86431367D01*
X175022538Y-86431586D01*
X175187257Y-86431416D01*
X175313669Y-86430672D01*
X175406588Y-86429000D01*
X175470830Y-86426047D01*
X175511210Y-86421461D01*
X175532544Y-86414887D01*
X175539648Y-86405973D01*
X175537336Y-86394366D01*
X175537121Y-86393852D01*
X175511374Y-86330549D01*
X175491613Y-86272881D01*
X175476889Y-86213544D01*
X175466256Y-86145231D01*
X175458766Y-86060638D01*
X175453471Y-85952459D01*
X175449423Y-85813390D01*
X175446921Y-85698479D01*
X175444851Y-85552683D01*
X175444594Y-85416589D01*
X175446032Y-85297782D01*
X175449048Y-85203844D01*
X175453525Y-85142360D01*
X175455723Y-85128440D01*
X175474400Y-85043545D01*
X175733964Y-85397964D01*
X175874641Y-85590734D01*
X175991431Y-85752641D01*
X176086490Y-85887201D01*
X176161969Y-85997928D01*
X176220021Y-86088334D01*
X176262799Y-86161935D01*
X176292455Y-86222244D01*
X176311143Y-86272776D01*
X176321016Y-86317044D01*
X176324225Y-86358563D01*
X176324256Y-86361510D01*
X176324730Y-86431586D01*
X176920812Y-86431586D01*
X177516894Y-86431586D01*
X177501666Y-86415414D01*
X177748506Y-86415414D01*
X177768863Y-86420013D01*
X177826335Y-86424104D01*
X177914914Y-86427489D01*
X178028592Y-86429974D01*
X178161360Y-86431361D01*
X178243745Y-86431586D01*
X178384798Y-86431095D01*
X178510249Y-86429717D01*
X178614078Y-86427596D01*
X178690267Y-86424876D01*
X178732797Y-86421701D01*
X178739671Y-86419734D01*
X178730737Y-86394079D01*
X178709347Y-86349243D01*
X178702625Y-86329280D01*
X178696761Y-86295100D01*
X178691654Y-86243587D01*
X178687206Y-86171629D01*
X178683317Y-86076111D01*
X178679888Y-85953920D01*
X178676819Y-85801942D01*
X178674011Y-85617063D01*
X178671366Y-85396171D01*
X178668782Y-85136150D01*
X178668048Y-85054932D01*
X178657072Y-83819261D01*
X178208828Y-83821730D01*
X178074399Y-83822862D01*
X177955259Y-83824613D01*
X177857902Y-83826827D01*
X177788822Y-83829345D01*
X177754512Y-83832011D01*
X177752003Y-83832780D01*
X177756573Y-83854394D01*
X177777964Y-83890677D01*
X177785499Y-83905121D01*
X177791869Y-83927464D01*
X177797168Y-83961129D01*
X177801493Y-84009541D01*
X177804938Y-84076124D01*
X177807599Y-84164301D01*
X177809572Y-84277496D01*
X177810953Y-84419135D01*
X177811838Y-84592640D01*
X177812321Y-84801436D01*
X177812498Y-85048948D01*
X177812506Y-85127763D01*
X177812369Y-85389331D01*
X177811902Y-85611077D01*
X177811019Y-85796306D01*
X177809636Y-85948318D01*
X177807667Y-86070418D01*
X177805028Y-86165907D01*
X177801633Y-86238088D01*
X177797397Y-86290264D01*
X177792236Y-86325737D01*
X177786064Y-86347809D01*
X177780849Y-86357388D01*
X177756030Y-86395866D01*
X177748506Y-86415414D01*
X177501666Y-86415414D01*
X177410302Y-86318386D01*
X177357624Y-86258773D01*
X177287707Y-86174472D01*
X177208751Y-86075615D01*
X177128954Y-85972336D01*
X177109404Y-85946442D01*
X177040995Y-85854525D01*
X176959053Y-85743089D01*
X176866966Y-85616865D01*
X176768123Y-85480583D01*
X176665913Y-85338976D01*
X176563725Y-85196774D01*
X176464946Y-85058707D01*
X176372966Y-84929507D01*
X176291174Y-84813905D01*
X176222957Y-84716632D01*
X176171705Y-84642419D01*
X176140806Y-84595996D01*
X176134113Y-84584810D01*
X176130016Y-84570556D01*
X176132710Y-84551353D01*
X176144521Y-84523945D01*
X176167775Y-84485075D01*
X176204795Y-84431488D01*
X176257908Y-84359926D01*
X176329438Y-84267133D01*
X176421711Y-84149854D01*
X176537052Y-84004832D01*
X176642204Y-83873265D01*
X176766955Y-83718459D01*
X176890207Y-83567546D01*
X177007813Y-83425459D01*
X177115625Y-83297131D01*
X177209496Y-83187495D01*
X177285279Y-83101484D01*
X177338829Y-83044031D01*
X177341878Y-83040966D01*
X177509257Y-82873861D01*
X176927775Y-82873861D01*
X176346292Y-82873861D01*
X176346292Y-82945419D01*
X176332067Y-83013673D01*
X176292052Y-83103047D01*
X176265435Y-83149543D01*
X176229746Y-83203631D01*
X176175269Y-83280590D01*
X176105944Y-83375327D01*
X176025711Y-83482749D01*
X175938511Y-83597764D01*
X175848284Y-83715280D01*
X175758971Y-83830203D01*
X175674513Y-83937442D01*
X175598850Y-84031903D01*
X175535922Y-84108495D01*
X175489669Y-84162125D01*
X175464034Y-84187699D01*
X175461014Y-84189141D01*
X175454739Y-84168125D01*
X175450152Y-84107197D01*
X175447329Y-84009540D01*
X175446348Y-83878337D01*
X175447285Y-83716771D01*
X175448078Y-83653829D01*
X175450572Y-83487700D01*
X175453163Y-83358507D01*
X175456446Y-83260065D01*
X175461021Y-83186189D01*
X175467486Y-83130695D01*
X175476438Y-83087397D01*
X175488476Y-83050111D01*
X175504197Y-83012652D01*
X175511672Y-82996189D01*
X175567675Y-82873861D01*
X175029819Y-82873861D01*
X174882644Y-82874248D01*
X174750831Y-82875338D01*
X174640162Y-82877022D01*
X174556414Y-82879191D01*
X174505369Y-82881735D01*
X174491963Y-82883978D01*
X174160994Y-82883978D01*
X174161496Y-82818586D01*
X174163036Y-82686448D01*
X174164938Y-82578068D01*
X174167240Y-82491024D01*
X174169977Y-82422897D01*
X174170557Y-82413573D01*
X177814875Y-82413573D01*
X177821947Y-82471641D01*
X177842326Y-82522800D01*
X177872867Y-82573758D01*
X177958278Y-82669183D01*
X178067153Y-82733471D01*
X178190831Y-82764254D01*
X178320651Y-82759164D01*
X178427914Y-82725522D01*
X178535099Y-82655203D01*
X178612522Y-82559929D01*
X178658060Y-82447850D01*
X178669588Y-82327113D01*
X178644981Y-82205868D01*
X178590188Y-82103056D01*
X178502225Y-82013625D01*
X178391617Y-81958865D01*
X178255196Y-81937303D01*
X178232964Y-81936844D01*
X178111897Y-81948958D01*
X178012314Y-81990544D01*
X177922702Y-82067233D01*
X177890895Y-82104236D01*
X177852876Y-82157835D01*
X177831212Y-82211146D01*
X177820295Y-82281348D01*
X177816982Y-82330637D01*
X177814875Y-82413573D01*
X174170557Y-82413573D01*
X174173187Y-82371265D01*
X174176907Y-82333707D01*
X174181174Y-82307803D01*
X174186024Y-82291131D01*
X174191495Y-82281272D01*
X174193345Y-82279199D01*
X174203029Y-82272434D01*
X174219581Y-82266534D01*
X174245922Y-82261422D01*
X174284972Y-82257021D01*
X174339654Y-82253251D01*
X174412886Y-82250035D01*
X174507590Y-82247296D01*
X174626688Y-82244956D01*
X174773098Y-82242937D01*
X174949744Y-82241160D01*
X175159544Y-82239550D01*
X175405420Y-82238026D01*
X175690293Y-82236513D01*
X175820023Y-82235872D01*
X177411109Y-82228140D01*
X177458398Y-82097540D01*
X177532376Y-81935113D01*
X177628010Y-81804244D01*
X177752078Y-81697623D01*
X177911355Y-81607941D01*
X177913073Y-81607140D01*
X177981053Y-81578297D01*
X178043083Y-81560652D01*
X178114005Y-81551562D01*
X178208660Y-81548385D01*
X178244124Y-81548189D01*
X178344903Y-81549286D01*
G37*
%TO.C,D1*%
D11*
X169071000Y-84526000D02*
X169071000Y-82606000D01*
X169071000Y-82606000D02*
X166386000Y-82606000D01*
X166386000Y-84526000D02*
X169071000Y-84526000D01*
%TO.C,R2*%
X160247064Y-84301000D02*
X159792936Y-84301000D01*
X160247064Y-82831000D02*
X159792936Y-82831000D01*
%TO.C,J3*%
X191710000Y-79950000D02*
X191710000Y-87690000D01*
X191710000Y-79950000D02*
X194310000Y-79950000D01*
X191710000Y-87690000D02*
X196910000Y-87690000D01*
X194310000Y-79950000D02*
X194310000Y-82550000D01*
X194310000Y-82550000D02*
X196910000Y-82550000D01*
X195580000Y-79950000D02*
X196910000Y-79950000D01*
X196910000Y-79950000D02*
X196910000Y-81280000D01*
X196910000Y-82550000D02*
X196910000Y-87690000D01*
%TO.C,J4*%
X165802000Y-81982000D02*
X165802000Y-82102000D01*
X165802000Y-82102000D02*
X168462000Y-82102000D01*
X167132000Y-79442000D02*
X168462000Y-79442000D01*
X168462000Y-79442000D02*
X168462000Y-80772000D01*
X168462000Y-81982000D02*
X168462000Y-82102000D01*
%TO.C,J2*%
X158690000Y-81982000D02*
X158690000Y-82102000D01*
X158690000Y-82102000D02*
X161350000Y-82102000D01*
X160020000Y-79442000D02*
X161350000Y-79442000D01*
X161350000Y-79442000D02*
X161350000Y-80772000D01*
X161350000Y-81982000D02*
X161350000Y-82102000D01*
%TO.C,J5*%
X162246000Y-81982000D02*
X162246000Y-82102000D01*
X162246000Y-82102000D02*
X164906000Y-82102000D01*
X163576000Y-79442000D02*
X164906000Y-79442000D01*
X164906000Y-79442000D02*
X164906000Y-80772000D01*
X164906000Y-81982000D02*
X164906000Y-82102000D01*
%TO.C,J6*%
X158690000Y-88586000D02*
X158690000Y-88706000D01*
X158690000Y-88706000D02*
X161350000Y-88706000D01*
X160020000Y-86046000D02*
X161350000Y-86046000D01*
X161350000Y-86046000D02*
X161350000Y-87376000D01*
X161350000Y-88586000D02*
X161350000Y-88706000D01*
%TO.C,D2*%
X161891000Y-82606000D02*
X161891000Y-84526000D01*
X161891000Y-84526000D02*
X164576000Y-84526000D01*
X164576000Y-82606000D02*
X161891000Y-82606000D01*
%TD*%
M02*
